<?xml version="1.0" encoding="utf-8"?>
<!-- Generator: Adobe Illustrator 25.0.1, SVG Export Plug-In . SVG Version: 6.00 Build 0)  -->
<svg version="1.0" id="Layer_1" xmlns="http://www.w3.org/2000/svg" xmlns:xlink="http://www.w3.org/1999/xlink" x="0px" y="0px"
	 width="150px" height="150px" viewBox="0 0 150 150" enable-background="new 0 0 150 150" xml:space="preserve">
<path fill="#689F63" d="M131.4,35.9L80.6,7.2c-2.8-1.9-7.4-1.9-10.2,0L19.5,35.9c-3.7,1.9-5.6,5.6-5.6,9.3v58.3
	c0,3.7,2.8,7.4,5.6,9.3l13,8.3c6.5,2.8,8.3,2.8,12,2.8c9.3,0,14.8-5.6,14.8-15.7V50.7c0-0.9,0-1.9-0.9-1.9h-6.5
	c-0.9,0-2.8,0.9-2.8,1.9v57.4c0,4.6-3.7,9.3-12,5.6l-13.9-8.3c-0.9,0-0.9-0.9-0.9-0.9V45.2c0-0.9,0.9-0.9,0.9-1.9L75,14.6
	c0.9,0,0.9,0,1.9,0l50,29.6c0.9,0,0,0.9,0,1.9v58.3c0,0.9,0,0.9,0,0.9l-50.9,29.6c0,0-0.9,0-1.9,0l-13-7.4h-0.9
	c-2.8,1.9-3.7,1.9-7.4,2.8c-0.9,0-1.9,0.9,0.9,1.9l16.7,10.2c1.9,0.9,3.7,1.9,5.6,1.9c1.9,0,3.7-0.9,5.6-1.9l50-29.6
	c3.7-1.9,4.6-5.6,4.6-9.3V45.2C136.1,41.5,135.1,37.8,131.4,35.9z M91.7,95.1C77.8,95.1,75,91.4,74.1,84c0-0.9-0.9-1.9-1.9-1.9h-6.5
	c0,0.9-0.9,1.9-0.9,2.8c0,8.3,4.6,18.5,26.8,18.5c15.7,0,25-6.5,25-17.6S109.2,72,93.5,70.1s-16.7-2.8-16.7-6.5
	c0-3.7,0.9-7.4,13-7.4c10.2,0,13.9,1.9,15.7,9.3c0,0.9,0.9,0.9,1.9,0.9h6.5h0.9v-0.9c-0.9-12-9.3-18.5-25-18.5
	C75,47,66.7,53.5,66.7,63.7c0,11.1,8.3,13.9,22.2,15.7c16.7,1.9,17.6,3.7,17.6,7.4C106.5,92.3,101.8,95.1,91.7,95.1z"/>
</svg>