<?xml version="1.0" encoding="utf-8"?>
<svg version="1.1" id="Layer_1" xmlns="http://www.w3.org/2000/svg" xmlns:xlink="http://www.w3.org/1999/xlink" x="0px" y="0px"
	 width="16px" height="16px" viewBox="0 0 16 16" enable-background="new 0 0 16 16" xml:space="preserve">
<path fill="#83CD29" d="M14.1,3.8L8.6,0.7c-0.3-0.2-0.8-0.2-1.1,0L2,3.8C1.6,4,1.4,4.4,1.4,4.8v6.3c0,0.4,0.3,0.8,0.6,1L3.4,13
	c0.7,0.3,0.9,0.3,1.3,0.3c1,0,1.6-0.6,1.6-1.7V5.4c0-0.1,0-0.2-0.1-0.2H5.5c-0.1,0-0.3,0.1-0.3,0.2v6.2c0,0.5-0.4,1-1.3,0.6
	l-1.5-0.9c-0.1,0-0.1-0.1-0.1-0.1V4.8c0-0.1,0.1-0.1,0.1-0.2L8,1.5c0.1,0,0.1,0,0.2,0l5.4,3.2c0.1,0,0,0.1,0,0.2v6.3
	c0,0.1,0,0.1,0,0.1l-5.5,3.2c0,0-0.1,0-0.2,0l-1.4-0.8H6.4C6.1,13.9,6,13.9,5.6,14c-0.1,0-0.2,0.1,0.1,0.2l1.8,1.1
	c0.2,0.1,0.4,0.2,0.6,0.2c0.2,0,0.4-0.1,0.6-0.2l5.4-3.2c0.4-0.2,0.5-0.6,0.5-1V4.8C14.6,4.4,14.5,4,14.1,3.8z M9.8,10.2
	C8.3,10.2,8,9.8,7.9,9c0-0.1-0.1-0.2-0.2-0.2H7C7,8.9,6.9,9,6.9,9.1c0,0.9,0.5,2,2.9,2c1.7,0,2.7-0.7,2.7-1.9S11.7,7.7,10,7.5
	C8.3,7.3,8.2,7.2,8.2,6.8C8.2,6.4,8.3,6,9.6,6c1.1,0,1.5,0.2,1.7,1c0,0.1,0.1,0.1,0.2,0.1h0.7h0.1V7c-0.1-1.3-1-2-2.7-2
	C8,5,7.1,5.7,7.1,6.8C7.1,8,8,8.3,9.5,8.5c1.8,0.2,1.9,0.4,1.9,0.8C11.4,9.9,10.9,10.2,9.8,10.2z"/>
</svg>